# AST/ASF file generated using VICON BodyLanguage
# -----------------------------------------------
:version 1.10
:name VICON
:units
  mass 1.0
  length 0.45
  angle deg
:documentation
   .ast/.asf automatically generated from VICON data using
   VICON BodyBuilder and BodyLanguage model FoxedUp or BRILLIANT.MOD
:root
   order TX TY TZ RX RY RZ
   axis XYZ
   position 0 0 0  
   orientation 0 0 0 
:bonedata
  begin
     id 1 
     name lhipjoint
     direction 0.521689 -0.742065 0.420928 
     length 2.47002 
     axis 0 0 0  XYZ
  end
  begin
     id 2 
     name lfemur
     direction 0.34202 -0.939693 0  
     length 7.24654  
     axis 0 0 20  XYZ
    dof rx ry rz
    limits (-160.0 20.0)
           (-70.0 70.0)
           (-60.0 70.0)
  end
  begin
     id 3 
     name ltibia
     direction 0.34202 -0.939693 0   
     length 8.04849   
     axis 0 0 20   XYZ
    dof rx
    limits (-10.0 170.0)
  end
  begin
     id 4 
     name lfoot
     direction 0.0745411 -0.2048 0.975961   
     length 1.72367   
     axis -90 7.62852e-016 20   XYZ
    dof rx rz
    limits (-45.0 90.0)
           (-70.0 20.0)
  end
  begin
     id 5 
     name ltoes
     direction 1.53556e-011 -4.21901e-011 1   
     length 0.87311   
     axis -90 7.62852e-016 20   XYZ
    dof rx
    limits (-90.0 20.0)
  end
  begin
     id 6 
     name rhipjoint
     direction -0.52849 -0.738415 0.418857   
     length 2.48223  
     axis 0 0 0  XYZ 
  end
  begin
     id 7 
     name rfemur
     direction -0.34202 -0.939693 0   
     length 7.15571   
     axis 0 0 -20   XYZ
    dof rx ry rz
    limits (-160.0 20.0)
           (-70.0 70.0)
           (-70.0 60.0)
  end
  begin
     id 8 
     name rtibia
     direction -0.34202 -0.939693 0   
     length 7.81659   
     axis 0 0 -20   XYZ
    dof rx
    limits (-10.0 170.0)
 end
 begin
     id 9 
     name rfoot
     direction -0.0917348 -0.252039 0.963359   
     length 1.84382  
     axis -90 -7.62852e-016 -20   XYZ
    dof rx rz
    limits (-45.0 90.0)
           (-20.0 70.0)
  end
  begin
     id 10 
     name rtoes
     direction -1.53551e-011 -4.21879e-011 1   
     length 0.927771   
     axis -90 -7.62852e-016 -20   XYZ
    dof rx
    limits (-90.0 20.0)
  end
  begin
     id 11 
     name lowerback
     direction 0.00583058 0.999822 0.0179296   
     length 2.1429   
     axis 0 0 0   XYZ
    dof rx ry rz
    limits (-20.0 45.0)
           (-30.0 30.0)
           (-30.0 30.0)
  end
  begin
     id 12 
     name upperback
     direction -0.0137999 0.999752 -0.0175071   
     length 2.14252   
     axis 0 0 0   XYZ
    dof rx ry rz
    limits (-20.0 45.0)
           (-30.0 30.0)
           (-30.0 30.0)
  end
  begin
     id 13 
     name thorax
     direction -0.0158036 0.99955 -0.0254909   
     length 2.1383   
     axis 0 0 0   XYZ
    dof rx ry rz
    limits (-20.0 45.0)
           (-30.0 30.0)
           (-30.0 30.0)
  end
  begin
     id 14 
     name lowerneck
     direction -0.0101179 0.999403 -0.0330262   
     length 1.65808   
     axis 0 0 0   XYZ
    dof rx ry rz
    limits (-20.0 45.0)
           (-30.0 30.0)
           (-30.0 30.0)
  end
  begin
     id 15 
     name upperneck
     direction 0.0497734 0.995978 -0.074501   
     length 1.5897   
     axis 0 0 0   XYZ
    dof rx ry rz
    limits (-20.0 45.0)
           (-30.0 30.0)
           (-30.0 30.0)
  end
  begin
     id 16
     name head
     direction 0.0189524 0.999519 -0.0245438  
     length 1.74024  
     axis 0 0 0   XYZ
    dof rx ry rz
    limits (-20.0 45.0)
           (-30.0 30.0)
           (-30.0 30.0)
  end
  begin
     id 17 
     name lclavicle
     direction 0.945604 0.324422 0.0241537  
     length 3.59089  
     axis 0 0 0   XYZ
    dof ry rz
    limits (-20.0 10.0)
           (0.0 20.0)
  end
  begin
     id 18 
     name lhumerus
     direction 1 -4.48964e-011 -2.63524e-027   
     length 5.2391   
     axis 180 -30 -90   XYZ
    dof rx ry rz
    limits (-60.0 90.0)
           (-90.0 90.0)
           (-90.0 90.0)
  end
  begin
     id 19
     name lradius
     direction 1 -4.48969e-011 3.86978e-028   
     length 3.31467   
     axis 180 -30 -90   XYZ
    dof rx
    limits (-10.0 170.0)
  end
  begin
     id 20
     name lwrist
     direction 1 -4.48963e-011 7.20928e-028   
     length 1.65734   
     axis -5.52449e-016 90 90   XYZ
    dof ry
    limits (-180.0 0.0)
 end
  begin
     id 21 
     name lhand
     direction 1 -4.48964e-011 1.44186e-027   
     length 0.9659   
     axis -9.20027e-016 90 90   XYZ
    dof rx rz
    limits (-90.0 90.0)
           (-45.0 45.0)
  end
  begin
     id 22 
     name lfingers
     direction 1 -4.48965e-011 2.88371e-027   
     length 0.778733   
     axis -1.84005e-015 90 90   XYZ
    dof rx
    limits (0.0 90.0)
  end
  begin
     id 23
     name lthumb
     direction 0.707107 -6.34931e-011 0.707107   
     length 1.11811   
     axis -90 45 2.85299e-015   XYZ
    dof rx rz
    limits (-45.0 45.0)
           (-45.0 45.0)
  end
  begin
     id 24 
     name rclavicle
     direction -0.923762 0.370785 0.0958234   
     length 3.54196  
     axis 0 0 0   XYZ 
    dof ry rz
    limits (-10.0 20.0)
           (-20.0 0.0)
  end
  begin
     id 25 
     name rhumerus
     direction -1 -4.48966e-011 1.18702e-017  
     length 5.30252   
     axis 180 30 90   XYZ
    dof rx ry rz
    limits (-90.0 60.0)
           (-90.0 90.0)
           (-90.0 90.0)
  end
  begin
     id 26 
     name rradius
     direction -1 -4.48966e-011 4.46736e-027   
     length 3.67875   
     axis 180 30 90   XYZ
    dof rx
    limits (-10.0 170.0)
  end
  begin
     id 27 
     name rwrist
     direction -1 -4.48966e-011 7.20928e-028   
     length 1.83937   
     axis -5.52449e-016 -90 -90   XYZ
    dof ry
    limits (-180.0 0.0)
  end
  begin
     id 28
     name rhand
     direction -1 -4.48973e-011 1.44186e-027   
     length 0.594811   
     axis -9.20027e-016 -90 -90   XYZ
    dof rx rz
    limits (-90.0 90.0)
           (-45.0 45.0)
  end
  begin
     id 29
     name rfingers
     direction -1 -4.48963e-011 2.88371e-027   
     length 0.479552   
     axis -1.84005e-015 -90 -90   XYZ
    dof rx
    limits (0.0 90.0)
  end
  begin
     id 30
     name rthumb
     direction -0.707107 -6.34932e-011 0.707107   
     length 0.688544   
     axis -90 -45 -2.85299e-015   XYZ
    dof rx rz
    limits (-45.0 45.0)
           (-45.0 45.0)
  end
:hierarchy
  begin
    root lhipjoint rhipjoint lowerback
    lhipjoint lfemur
    lfemur ltibia
    ltibia lfoot
    lfoot ltoes
    rhipjoint rfemur
    rfemur rtibia
    rtibia rfoot
    rfoot rtoes
    lowerback upperback
    upperback thorax
    thorax lowerneck lclavicle rclavicle
    lowerneck upperneck
    upperneck head
    lclavicle lhumerus
    lhumerus lradius
    lradius lwrist
    lwrist lhand lthumb
    lhand lfingers
    rclavicle rhumerus
    rhumerus rradius
    rradius rwrist
    rwrist rhand rthumb
    rhand rfingers
  end

#!OML:ASF E:\acrobat2\Project_11_07_03\Capture day 1\Session 1\Acrobat.ASF
:FULLY-SPECIFIED
:DEGREES
409
root 10.3085 21.0451 -13.8201 22.9153 0.519849 -0.0296955
lowerback 1.08849 0.437894 1.16551
upperback -3.80643 0.568335 -1.51744
thorax -4.50871 0.211188 -2.2494
lowerneck -2.26479 -1.12532 -0.313391
upperneck 8.13882 -1.67758 2.42198
head 3.01783 -0.758014 0.780745
rclavicle 2.68359e-015 -7.15625e-015
rhumerus 85.076 -36.2381 -57.2875
rradius 19.0013
rwrist 11.1572
rhand -18.317 -26.1595
rfingers 7.12502
rthumb 7.96435 -55.9894
lclavicle 2.68359e-015 -7.15625e-015
lhumerus 82.1643 31.4588 42.6789
lradius 18.8627
lwrist -8.5947
lhand -11.7429 -19.7737
lfingers 7.12502
lthumb 14.3047 9.71352
rfemur -11.1696 0.702805 18.7875
rtibia 7.96472
rfoot -19.5491 -4.45505
rtoes 14.0002
lfemur -25.593 -1.61226 -16.8034
ltibia 32.4706
lfoot -23.1012 -12.5153
ltoes 10.4792
410
root 10.321 21.0816 -13.835 23.5022 0.416211 -0.134492
lowerback 2.00735 0.467883 1.26475
upperback -3.51097 0.62183 -1.45254
thorax -4.7206 0.235375 -2.24908
lowerneck -2.2561 -1.12587 -0.322956
upperneck 7.73503 -1.66921 2.42732
head 2.87901 -0.757217 0.783339
rclavicle 8.05078e-015 5.36719e-015
rhumerus 85.4255 -36.0759 -57.9003
rradius 19.0345
rwrist 11.6556
rhand -18.4007 -26.426
rfingers 7.12502
rthumb 7.88358 -56.259
lclavicle 8.05078e-015 5.36719e-015
lhumerus 82.3462 31.623 42.9985
lradius 18.7825
lwrist -9.11467
lhand -11.5327 -19.7067
lfingers 7.12502
lthumb 14.5073 9.76605
rfemur -13.0039 0.805934 18.7305
rtibia 9.90474
rfoot -19.8211 -4.35337
rtoes 12.7348
lfemur -26.7673 -1.16533 -16.8253
ltibia 33.2705
lfoot -22.5217 -12.431
ltoes 10.122
411
root 10.3321 21.1176 -13.8535 24.1692 0.267956 -0.249821
lowerback 2.92644 0.501804 1.32833
upperback -3.23853 0.680537 -1.39151
thorax -4.95706 0.262776 -2.23475
lowerneck -2.30573 -1.11109 -0.302845
upperneck 7.34318 -1.64159 2.42103
head 2.7551 -0.745953 0.777523
rclavicle -7.65321e-015 1.33186e-014
rhumerus 85.8476 -35.8859 -58.616
rradius 19.0435
rwrist 12.2827
rhand -18.5189 -26.6947
rfingers 7.12502
rthumb 7.76954 -56.532
lclavicle -7.65321e-015 1.33186e-014
lhumerus 82.5145 31.8235 43.253
lradius 18.7038
lwrist -9.58895
lhand -11.299 -19.6573
lfingers 7.12502
lthumb 14.7325 9.79912
rfemur -14.9913 0.939507 18.6386
rtibia 11.9271
rfoot -20.0925 -4.26872
rtoes 11.3397
lfemur -28.1131 -0.677937 -16.8629
ltibia 34.2151
lfoot -21.9416 -12.3316
ltoes 9.65463
412
root 10.3414 21.152 -13.8754 24.936 0.0747558 -0.371952
lowerback 3.81744 0.545635 1.34555
upperback -2.99004 0.75032 -1.34026
thorax -5.20263 0.29673 -2.20676
lowerneck -2.46568 -1.08019 -0.246802
upperneck 6.99165 -1.5953 2.40758
head 2.66503 -0.723695 0.76358
rclavicle 1.63003e-014 -9.14409e-015
rhumerus 86.3501 -35.6855 -59.456
rradius 19.0393
rwrist 13.0162
rhand -18.5857 -26.9031
rfingers 7.12502
rthumb 7.70509 -56.7428
lclavicle 1.63003e-014 -9.14409e-015
lhumerus 82.5824 32.0478 43.2271
lradius 18.603
lwrist -9.7801
lhand -11.211 -19.6164
lfingers 7.12502
lthumb 14.8172 9.83386
rfemur -17.1646 0.227193 18.781
rtibia 14.0607
rfoot -19.9055 -3.42306
rtoes 10.0014
lfemur -29.6556 -0.178047 -16.9123
ltibia 35.3115
lfoot -21.3765 -12.2289
ltoes 9.326
413
root 10.3497 21.1834 -13.8999 25.7696 -0.153276 -0.504721
lowerback 4.69833 0.602715 1.33284
upperback -2.75218 0.835545 -1.30028
thorax -5.45319 0.338903 -2.17672
lowerneck -2.71119 -1.03901 -0.16999
upperneck 6.65018 -1.538 2.40382
head 2.59428 -0.694646 0.749346
rclavicle -1.09332e-014 1.59028e-014
rhumerus 86.8881 -35.4956 -60.3522
rradius 19.0374
rwrist 13.7918
rhand -18.4635 -26.9941
rfingers 7.12502
rthumb 7.82297 -56.8294
lclavicle -1.09332e-014 1.59028e-014
lhumerus 82.57 32.2803 42.95
lradius 18.4754
lwrist -9.72687
lhand -11.2923 -19.5853
lfingers 7.12502
lthumb 14.7389 9.87068
rfemur -19.4914 -0.375898 18.9406
rtibia 16.3182
rfoot -19.7734 -2.64169
rtoes 8.71393
lfemur -31.3615 0.308492 -16.9658
ltibia 36.5614
lfoot -20.8469 -12.1327
ltoes 9.22225
414
root 10.3579 21.2104 -13.9256 26.6189 -0.392644 -0.640309
lowerback 5.59506 0.66637 1.30243
upperback -2.51099 0.927529 -1.27143
thorax -5.70912 0.384601 -2.15125
lowerneck -2.97609 -0.993445 -0.0823436
upperneck 6.27612 -1.47597 2.41156
head 2.5165 -0.662993 0.737021
rclavicle 3.57812e-015 4.96962e-015
rhumerus 87.3972 -35.3247 -61.2081
rradius 19.0507
rwrist 14.5226
rhand -18.1058 -26.961
rfingers 7.12502
rthumb 8.16818 -56.7831
lclavicle 3.57812e-015 4.96962e-015
lhumerus 82.5663 32.5003 42.6135
lradius 18.3296
lwrist -9.61859
lhand -11.4951 -19.57
lfingers 7.12502
lthumb 14.5435 9.90016
rfemur -21.8958 -0.870032 19.1096
rtibia 18.6963
rfoot -19.7161 -1.94335
rtoes 7.40843
lfemur -33.1717 0.753193 -17.0233
ltibia 37.9577
lfoot -20.3862 -12.024
ltoes 9.14289
415
root 10.3664 21.2317 -13.9515 27.448 -0.598581 -0.757723
lowerback 6.52875 0.720816 1.26276
upperback -2.26225 1.00561 -1.25007
thorax -5.97879 0.423258 -2.12958
lowerneck -3.21985 -0.956095 0.019992
upperneck 5.84869 -1.42445 2.41406
head 2.41735 -0.637252 0.720149
rclavicle -1.98785e-015 1.45113e-014
rhumerus 87.8575 -35.1642 -61.986
rradius 19.0742
rwrist 15.1547
rhand -17.5863 -26.8505
rfingers 7.12502
rthumb 8.66958 -56.6525
lclavicle -1.98785e-015 1.45113e-014
lhumerus 82.6376 32.6907 42.3802
lradius 18.1823
lwrist -9.58604
lhand -11.7329 -19.5542
lfingers 7.12502
lthumb 14.3143 9.93241
rfemur -24.3112 -1.27894 19.2744
rtibia 21.1791
rfoot -19.7653 -1.35392
rtoes 5.9549
lfemur -35.0407 1.12317 -17.0889
ltibia 39.4869
lfoot -20.0021 -11.8979
ltoes 8.89479
416
root 10.3756 21.247 -13.9766 28.2349 -0.731012 -0.834307
lowerback 7.5124 0.751016 1.2208
upperback -2.0071 1.05034 -1.23176
thorax -6.27133 0.445007 -2.10852
lowerneck -3.41561 -0.935504 0.144279
upperneck 5.36271 -1.39348 2.3876
head 2.29024 -0.623274 0.689715
rclavicle 5.46658e-015 6.36111e-015
rhumerus 88.2404 -35.0045 -62.636
rradius 19.1051
rwrist 15.6155
rhand -16.9565 -26.7141
rfingers 7.12502
rthumb 9.27736 -56.49
lclavicle 5.46658e-015 6.36111e-015
lhumerus 82.8092 32.8366 42.3534
lradius 18.0643
lwrist -9.69646
lhand -11.9199 -19.5175
lfingers 7.12502
lthumb 14.1342 9.98175
rfemur -26.6902 -1.64012 19.4221
rtibia 23.7444
rfoot -19.9448 -0.890591
rtoes 4.18348
lfemur -36.935 1.39729 -17.1701
ltibia 41.1318
lfoot -19.6807 -11.7644
ltoes 8.39051
417
root 10.3856 21.2561 -14.0001 28.9693 -0.767208 -0.87244
lowerback 8.54947 0.745234 1.20283
upperback -1.74594 1.04926 -1.20986
thorax -6.58902 0.442913 -2.09318
lowerneck -3.57523 -0.92717 0.28483
upperneck 4.84856 -1.37709 2.32132
head 2.14757 -0.618189 0.643664
rclavicle -4.57205e-015 -3.37934e-015
rhumerus 88.45 -34.8444 -63.011
rradius 19.167
rwrist 15.7561
rhand -16.2897 -26.5958
rfingers 7.12502
rthumb 9.92066 -56.342
lclavicle -4.57205e-015 -3.37934e-015
lhumerus 83.1538 32.9526 42.6995
lradius 17.9967
lwrist -10.1472
lhand -11.9559 -19.4565
lfingers 7.12502
lthumb 14.0995 10.0452
rfemur -29.0026 -1.9893 19.5632
rtibia 26.3714
rfoot -20.259 -0.544134
rtoes 2.05344
lfemur -38.8277 1.56248 -17.2506
ltibia 42.8763
lfoot -19.4238 -11.6313
ltoes 7.64728
418
root 10.3964 21.2584 -14.0217 29.6691 -0.718655 -0.88273
lowerback 9.61513 0.702061 1.21691
upperback -1.47921 1.00255 -1.1795
thorax -6.91759 0.417178 -2.0807
lowerneck -3.75743 -0.921323 0.407872
upperneck 4.35578 -1.36374 2.24094
head 2.01684 -0.615262 0.596385
rclavicle 1.59028e-015 -7.95139e-016
rhumerus 88.4754 -34.6729 -63.0934
rradius 19.2787
rwrist 15.5731
rhand -15.6662 -26.49
rfingers 7.12502
rthumb 10.5221 -56.2066
lclavicle 1.59028e-015 -7.95139e-016
lhumerus 83.5583 33.0461 43.2101
lradius 17.9788
lwrist -10.6476
lhand -11.9219 -19.3653
lfingers 7.12502
lthumb 14.1323 10.1341
rfemur -31.2585 -2.33541 19.705
rtibia 29.0402
rfoot -20.6941 -0.287063
rtoes -0.300922
lfemur -40.7221 1.62151 -17.3152
ltibia 44.7067
lfoot -19.2242 -11.5136
ltoes 6.86886
419
root 10.4077 21.2528 -14.041 30.3781 -0.636209 -0.872671
lowerback 10.6468 0.634751 1.23986
upperback -1.20781 0.925489 -1.14376
thorax -7.22149 0.376763 -2.06062
lowerneck -4.00532 -0.907079 0.49086
upperneck 3.91199 -1.33979 2.1654
head 1.91488 -0.606899 0.557935
rclavicle -1.91827e-014 5.56597e-015
rhumerus 88.396 -34.4688 -62.9958
rradius 19.4371
rwrist 15.1784
rhand -15.1273 -26.4054
rfingers 7.12502
rthumb 11.042 -56.095
lclavicle -1.91827e-014 5.56597e-015
lhumerus 83.9502 33.1409 43.7415
lradius 18.0064
lwrist -11.08
lhand -11.8695 -19.2582
lfingers 7.12502
lthumb 14.1827 10.2376
rfemur -33.5079 -2.64822 19.8315
rtibia 31.7329
rfoot -21.2151 -0.0733684
rtoes -2.52061
lfemur -42.6528 1.60816 -17.3728
ltibia 46.6131
lfoot -19.0851 -11.4052
ltoes 6.13307
